{
	"asset":{
		"generator":"Khronos glTF Blender I/O v3.6.27",
		"version":"2.0"
	},
	"extensionsUsed":[
		"KHR_materials_specular",
		"KHR_materials_ior"
	],
	"scene":0,
	"scenes":[
		{
			"name":"Scene",
			"nodes":[
				0,
				1
			]
		}
	],
	"nodes":[
		{
			"mesh":0,
			"name":"Sin t\u00edtulo13.1",
			"rotation":[
				0.4956178367137909,
				-0.50434410572052,
				0.5043442845344543,
				0.49561765789985657
			]
		},
		{
			"mesh":1,
			"name":"13.002",
			"rotation":[
				0.4956178367137909,
				-0.50434410572052,
				0.5043442845344543,
				0.49561765789985657
			]
		}
	],
	"materials":[
		{
			"doubleSided":true,
			"extensions":{
				"KHR_materials_specular":{
					"specularColorTexture":{
						"index":0
					}
				},
				"KHR_materials_ior":{
					"ior":1.4500000476837158
				}
			},
			"name":"alumin.030",
			"pbrMetallicRoughness":{
				"baseColorTexture":{
					"index":1
				},
				"metallicFactor":0
			}
		},
		{
			"name":"Translucent_Glass_Gray.029",
			"pbrMetallicRoughness":{
				"roughnessFactor":0
			}
		},
		{
			"doubleSided":true,
			"emissiveFactor":[
				1,
				1,
				1
			],
			"emissiveTexture":{
				"index":2
			},
			"name":"Material.016",
			"pbrMetallicRoughness":{
				"baseColorFactor":[
					0,
					0,
					0,
					1
				]
			}
		}
	],
	"meshes":[
		{
			"name":"Sin t\u00edtulo13.1",
			"primitives":[
				{
					"attributes":{
						"POSITION":0,
						"NORMAL":1,
						"TEXCOORD_0":2
					},
					"indices":3,
					"material":0
				},
				{
					"attributes":{
						"POSITION":4,
						"NORMAL":5,
						"TEXCOORD_0":6
					},
					"indices":7,
					"material":1
				}
			]
		},
		{
			"name":"13.004",
			"primitives":[
				{
					"attributes":{
						"POSITION":8,
						"NORMAL":9,
						"TEXCOORD_0":10
					},
					"indices":11,
					"material":2
				}
			]
		}
	],
	"textures":[
		{
			"sampler":0,
			"source":0
		},
		{
			"sampler":0,
			"source":1
		},
		{
			"sampler":0,
			"source":2
		}
	],
	"images":[
		{
			"mimeType":"image/png",
			"name":"Image",
			"uri":"13/Image.png"
		},
		{
			"mimeType":"image/jpeg",
			"name":"alumin",
			"uri":"13/alumin.jpg"
		},
		{
			"mimeType":"image/png",
			"name":"7_13_COMBINED",
			"uri":"13/7_13_COMBINED.png"
		}
	],
	"accessors":[
		{
			"bufferView":0,
			"componentType":5126,
			"count":14812,
			"max":[
				81.19730377197266,
				2.7970099449157715,
				-31.100000381469727
			],
			"min":[
				0.19265499711036682,
				-27.617700576782227,
				-33.45000076293945
			],
			"type":"VEC3"
		},
		{
			"bufferView":1,
			"componentType":5126,
			"count":14812,
			"type":"VEC3"
		},
		{
			"bufferView":2,
			"componentType":5126,
			"count":14812,
			"type":"VEC2"
		},
		{
			"bufferView":3,
			"componentType":5123,
			"count":17442,
			"type":"SCALAR"
		},
		{
			"bufferView":4,
			"componentType":5126,
			"count":651,
			"max":[
				81.13480377197266,
				2.767390012741089,
				-31.149999618530273
			],
			"min":[
				0.20896700024604797,
				-27.601299285888672,
				-33.400001525878906
			],
			"type":"VEC3"
		},
		{
			"bufferView":5,
			"componentType":5126,
			"count":651,
			"type":"VEC3"
		},
		{
			"bufferView":6,
			"componentType":5126,
			"count":651,
			"type":"VEC2"
		},
		{
			"bufferView":7,
			"componentType":5123,
			"count":936,
			"type":"SCALAR"
		},
		{
			"bufferView":8,
			"componentType":5126,
			"count":7934,
			"max":[
				83.09490203857422,
				9.358770370483398,
				-31
			],
			"min":[
				0,
				-27.720300674438477,
				-33.5
			],
			"type":"VEC3"
		},
		{
			"bufferView":9,
			"componentType":5126,
			"count":7934,
			"type":"VEC3"
		},
		{
			"bufferView":10,
			"componentType":5126,
			"count":7934,
			"type":"VEC2"
		},
		{
			"bufferView":11,
			"componentType":5123,
			"count":12711,
			"type":"SCALAR"
		}
	],
	"bufferViews":[
		{
			"buffer":0,
			"byteLength":177744,
			"byteOffset":0,
			"target":34962
		},
		{
			"buffer":0,
			"byteLength":177744,
			"byteOffset":177744,
			"target":34962
		},
		{
			"buffer":0,
			"byteLength":118496,
			"byteOffset":355488,
			"target":34962
		},
		{
			"buffer":0,
			"byteLength":34884,
			"byteOffset":473984,
			"target":34963
		},
		{
			"buffer":0,
			"byteLength":7812,
			"byteOffset":508868,
			"target":34962
		},
		{
			"buffer":0,
			"byteLength":7812,
			"byteOffset":516680,
			"target":34962
		},
		{
			"buffer":0,
			"byteLength":5208,
			"byteOffset":524492,
			"target":34962
		},
		{
			"buffer":0,
			"byteLength":1872,
			"byteOffset":529700,
			"target":34963
		},
		{
			"buffer":0,
			"byteLength":95208,
			"byteOffset":531572,
			"target":34962
		},
		{
			"buffer":0,
			"byteLength":95208,
			"byteOffset":626780,
			"target":34962
		},
		{
			"buffer":0,
			"byteLength":63472,
			"byteOffset":721988,
			"target":34962
		},
		{
			"buffer":0,
			"byteLength":25422,
			"byteOffset":785460,
			"target":34963
		}
	],
	"samplers":[
		{
			"magFilter":9729,
			"minFilter":9987
		}
	],
	"buffers":[
		{
			"byteLength":810884,
			"uri":"13.bin"
		}
	]
}
