{
	"asset":{
		"generator":"Khronos glTF Blender I/O v3.6.27",
		"version":"2.0"
	},
	"extensionsUsed":[
		"KHR_materials_specular",
		"KHR_materials_ior"
	],
	"scene":0,
	"scenes":[
		{
			"name":"Scene",
			"nodes":[
				0,
				1
			]
		}
	],
	"nodes":[
		{
			"mesh":0,
			"name":"15.1",
			"rotation":[
				0.4956178367137909,
				-0.50434410572052,
				0.5043442845344543,
				0.49561765789985657
			]
		},
		{
			"mesh":1,
			"name":"15.004",
			"rotation":[
				0.4956178367137909,
				-0.50434410572052,
				0.5043442845344543,
				0.49561765789985657
			]
		}
	],
	"materials":[
		{
			"doubleSided":true,
			"extensions":{
				"KHR_materials_specular":{
					"specularColorTexture":{
						"index":0
					}
				},
				"KHR_materials_ior":{
					"ior":1.4500000476837158
				}
			},
			"name":"alumin.032",
			"pbrMetallicRoughness":{
				"baseColorTexture":{
					"index":1
				},
				"metallicFactor":0
			}
		},
		{
			"name":"Translucent_Glass_Gray.031",
			"pbrMetallicRoughness":{
				"roughnessFactor":0
			}
		},
		{
			"doubleSided":true,
			"emissiveFactor":[
				1,
				1,
				1
			],
			"emissiveTexture":{
				"index":2
			},
			"name":"Material.014",
			"pbrMetallicRoughness":{
				"baseColorFactor":[
					0,
					0,
					0,
					1
				]
			}
		}
	],
	"meshes":[
		{
			"name":"15.1",
			"primitives":[
				{
					"attributes":{
						"POSITION":0,
						"NORMAL":1,
						"TEXCOORD_0":2
					},
					"indices":3,
					"material":0
				},
				{
					"attributes":{
						"POSITION":4,
						"NORMAL":5,
						"TEXCOORD_0":6
					},
					"indices":7,
					"material":1
				}
			]
		},
		{
			"name":"15.006",
			"primitives":[
				{
					"attributes":{
						"POSITION":8,
						"NORMAL":9,
						"TEXCOORD_0":10
					},
					"indices":11,
					"material":2
				}
			]
		}
	],
	"textures":[
		{
			"sampler":0,
			"source":0
		},
		{
			"sampler":0,
			"source":1
		},
		{
			"sampler":0,
			"source":2
		}
	],
	"images":[
		{
			"mimeType":"image/png",
			"name":"Image",
			"uri":"15/Image.png"
		},
		{
			"mimeType":"image/jpeg",
			"name":"alumin",
			"uri":"15/alumin.jpg"
		},
		{
			"mimeType":"image/png",
			"name":"5_15_COMBINED",
			"uri":"15/5_15_COMBINED.png"
		}
	],
	"accessors":[
		{
			"bufferView":0,
			"componentType":5126,
			"count":5962,
			"max":[
				33.76839828491211,
				0.6799139976501465,
				-36.099998474121094
			],
			"min":[
				0.193231999874115,
				-27.617599487304688,
				-38.45000076293945
			],
			"type":"VEC3"
		},
		{
			"bufferView":1,
			"componentType":5126,
			"count":5962,
			"type":"VEC3"
		},
		{
			"bufferView":2,
			"componentType":5126,
			"count":5962,
			"type":"VEC2"
		},
		{
			"bufferView":3,
			"componentType":5123,
			"count":7104,
			"type":"SCALAR"
		},
		{
			"bufferView":4,
			"componentType":5126,
			"count":257,
			"max":[
				33.73210144042969,
				0.6067299842834473,
				-36.150001525878906
			],
			"min":[
				0.20954500138759613,
				-27.601299285888672,
				-38.400001525878906
			],
			"type":"VEC3"
		},
		{
			"bufferView":5,
			"componentType":5126,
			"count":257,
			"type":"VEC3"
		},
		{
			"bufferView":6,
			"componentType":5126,
			"count":257,
			"type":"VEC2"
		},
		{
			"bufferView":7,
			"componentType":5123,
			"count":381,
			"type":"SCALAR"
		},
		{
			"bufferView":8,
			"componentType":5126,
			"count":5627,
			"max":[
				35.1775016784668,
				2.3845200538635254,
				-36
			],
			"min":[
				0.0005771269788965583,
				-27.720199584960938,
				-38.5
			],
			"type":"VEC3"
		},
		{
			"bufferView":9,
			"componentType":5126,
			"count":5627,
			"type":"VEC3"
		},
		{
			"bufferView":10,
			"componentType":5126,
			"count":5627,
			"type":"VEC2"
		},
		{
			"bufferView":11,
			"componentType":5123,
			"count":8616,
			"type":"SCALAR"
		}
	],
	"bufferViews":[
		{
			"buffer":0,
			"byteLength":71544,
			"byteOffset":0,
			"target":34962
		},
		{
			"buffer":0,
			"byteLength":71544,
			"byteOffset":71544,
			"target":34962
		},
		{
			"buffer":0,
			"byteLength":47696,
			"byteOffset":143088,
			"target":34962
		},
		{
			"buffer":0,
			"byteLength":14208,
			"byteOffset":190784,
			"target":34963
		},
		{
			"buffer":0,
			"byteLength":3084,
			"byteOffset":204992,
			"target":34962
		},
		{
			"buffer":0,
			"byteLength":3084,
			"byteOffset":208076,
			"target":34962
		},
		{
			"buffer":0,
			"byteLength":2056,
			"byteOffset":211160,
			"target":34962
		},
		{
			"buffer":0,
			"byteLength":762,
			"byteOffset":213216,
			"target":34963
		},
		{
			"buffer":0,
			"byteLength":67524,
			"byteOffset":213980,
			"target":34962
		},
		{
			"buffer":0,
			"byteLength":67524,
			"byteOffset":281504,
			"target":34962
		},
		{
			"buffer":0,
			"byteLength":45016,
			"byteOffset":349028,
			"target":34962
		},
		{
			"buffer":0,
			"byteLength":17232,
			"byteOffset":394044,
			"target":34963
		}
	],
	"samplers":[
		{
			"magFilter":9729,
			"minFilter":9987
		}
	],
	"buffers":[
		{
			"byteLength":411276,
			"uri":"15.bin"
		}
	]
}
